<svg width="560" height="560" viewBox="0 0 560 560" fill="none" xmlns="http://www.w3.org/2000/svg">
<g clip-path="url(#clip0_1520_5345)">
<path d="M376.666 169.35C376.666 242.17 334.558 276.63 279.578 276.63C224.597 276.63 182.484 242.17 182.484 169.35C182.484 96.5305 224.595 12.926 279.575 12.926C334.556 12.926 376.666 96.5306 376.666 169.35Z" fill="#D72222" style="mix-blend-mode:screen"/>
<path d="M303.15 133.36C342.522 194.618 325.731 246.373 279.48 276.1C233.229 305.827 179.171 299.608 139.798 238.35C100.426 177.092 90.647 83.9935 136.898 54.2665C183.15 24.5395 263.777 72.1017 303.15 133.36Z" fill="#21BD4D" style="mix-blend-mode:screen"/>
<path d="M222.163 143.937C288.405 174.181 302.263 226.798 279.428 276.812C256.593 326.827 207.756 350.823 141.514 320.579C75.2714 290.335 16.7084 217.305 39.5434 167.291C62.3784 117.276 155.921 113.693 222.163 143.937Z" fill="#21BD4D" style="mix-blend-mode:screen"/>
<path d="M159.44 196.115C231.517 185.741 271.624 222.511 279.456 276.931C287.289 331.351 259.18 377.943 187.102 388.316C115.025 398.69 26.2746 368.919 18.4422 314.499C10.6099 260.079 87.3628 206.489 159.44 196.115Z" fill="#21BD4D" style="mix-blend-mode:screen"/>
<path d="M134.883 273.925C189.907 226.227 243.527 235.474 279.54 277.019C315.552 318.564 317.098 372.956 262.073 420.654C207.049 468.351 116.293 491.293 80.2799 449.748C44.2673 408.203 79.8585 321.622 134.883 273.925Z" fill="#9326FF" style="mix-blend-mode:screen"/>
<path d="M156.291 352.658C176.79 282.783 226.896 261.571 279.653 277.048C332.41 292.525 363.119 337.446 342.62 407.321C322.121 477.196 258.179 545.565 205.421 530.088C152.664 514.611 135.792 422.533 156.291 352.658Z" fill="#9326FF" style="mix-blend-mode:screen"/>
<path d="M216.872 407.315C196.336 337.451 227.017 292.515 279.766 277.01C332.515 261.505 382.637 282.69 403.172 352.555C423.708 422.419 406.884 514.505 354.135 530.01C301.386 545.515 237.407 477.179 216.872 407.315Z" fill="#9326FF" style="mix-blend-mode:screen"/>
<path d="M297.389 420.537C242.339 372.869 243.853 318.479 279.844 276.915C315.835 235.352 369.453 226.074 424.502 273.742C479.552 321.411 515.188 407.973 479.197 449.536C443.206 491.1 352.438 468.206 297.389 420.537Z" fill="#D72222" style="mix-blend-mode:screen"/>
<path d="M372.269 388.128C300.187 377.792 272.053 331.219 279.857 276.795C287.66 222.371 327.749 185.576 399.831 195.912C471.914 206.248 548.695 259.798 540.891 314.223C533.087 368.647 444.352 398.464 372.269 388.128Z" fill="#D72222" style="mix-blend-mode:screen"/>
<path d="M417.739 320.378C351.513 350.657 302.664 326.69 279.803 276.687C256.942 226.685 270.771 174.057 336.997 143.778C403.223 113.499 496.767 117.034 519.629 167.036C542.49 217.038 483.965 290.099 417.739 320.378Z" fill="#D72222" style="mix-blend-mode:screen"/>
<path d="M419.357 238.801C380.016 300.08 325.966 306.33 279.699 276.627C233.432 246.924 216.61 195.175 255.95 133.896C295.291 72.6175 375.893 25.0131 422.16 54.7159C468.427 84.4186 458.697 177.522 419.357 238.801Z" fill="#D72222" style="mix-blend-mode:screen"/>
</g>
<defs>
<clipPath id="clip0_1520_5345">
<rect width="560" height="560" fill="white"/>
</clipPath>
</defs>
</svg>
