<svg width="740" height="200" viewBox="0 0 740 200" fill="none" xmlns="http://www.w3.org/2000/svg">
<path d="M249.44 196.115C321.517 185.741 361.624 222.511 369.456 276.931C377.289 331.351 349.18 377.943 277.102 388.317C205.025 398.69 116.275 368.919 108.442 314.499C100.61 260.08 177.363 206.489 249.44 196.115Z" fill="#21BD4D" style="mix-blend-mode:screen"/>
<path d="M462.269 388.128C390.187 377.792 362.053 331.219 369.857 276.795C377.66 222.371 417.749 185.576 489.831 195.912C561.914 206.248 638.695 259.799 630.891 314.223C623.087 368.647 534.352 398.464 462.269 388.128Z" fill="#D72222" style="mix-blend-mode:screen"/>
<path d="M466.666 169.35C466.666 242.17 424.558 276.63 369.578 276.63C314.597 276.63 272.484 242.17 272.484 169.35C272.484 96.5305 314.595 12.926 369.575 12.926C424.556 12.926 466.666 96.5306 466.666 169.35Z" fill="#D72222" style="mix-blend-mode:screen"/>
<path d="M393.15 133.36C432.522 194.618 415.731 246.373 369.48 276.1C323.229 305.827 269.171 299.608 229.798 238.35C190.426 177.092 180.647 83.9936 226.898 54.2666C273.15 24.5396 353.777 72.1018 393.15 133.36Z" fill="#21BD4D" style="mix-blend-mode:screen"/>
<path d="M312.163 143.937C378.405 174.181 392.263 226.798 369.428 276.812C346.593 326.827 297.756 350.823 231.514 320.579C165.271 290.335 106.708 217.305 129.543 167.291C152.378 117.276 245.921 113.693 312.163 143.937Z" fill="#21BD4D" style="mix-blend-mode:screen"/>
<path d="M507.739 320.378C441.513 350.657 392.664 326.69 369.803 276.688C346.942 226.685 360.771 174.057 426.997 143.778C493.223 113.499 586.767 117.034 609.629 167.036C632.49 217.038 573.965 290.099 507.739 320.378Z" fill="#D72222" style="mix-blend-mode:screen"/>
<path d="M509.353 238.801C470.013 300.08 415.962 306.33 369.695 276.627C323.428 246.924 306.606 195.175 345.946 133.896C385.287 72.6176 465.889 25.0132 512.156 54.7159C558.423 84.4187 548.693 177.523 509.353 238.801Z" fill="#D72222" style="mix-blend-mode:screen"/>
</svg>
