<svg width="66" height="32" viewBox="0 0 66 32" fill="none" xmlns="http://www.w3.org/2000/svg">
<path d="M62.4977 10.7841C61.1537 10.7841 60.0977 9.72808 60.0977 8.41608C60.0977 7.10408 61.1537 6.08008 62.4977 6.08008C63.7777 6.08008 64.8337 7.10408 64.8337 8.41608C64.8337 9.72808 63.7777 10.7841 62.4977 10.7841ZM60.5457 29.7601V13.9521H64.4497V29.7601H60.5457Z" fill="white"/>
<path d="M47.7205 30.1759C44.3605 30.1759 42.3125 28.2239 42.3125 25.2479C42.3125 22.3359 44.4245 20.5119 48.1685 20.2239L52.9045 19.8719V19.5199C52.9045 17.3759 51.6245 16.5119 49.6405 16.5119C47.3365 16.5119 46.0565 17.4719 46.0565 19.1359H42.7285C42.7285 15.7119 45.5445 13.4719 49.8325 13.4719C54.0885 13.4719 56.7125 15.7759 56.7125 20.1599V29.7599H53.2885L53.0005 27.4239C52.3285 29.0559 50.1845 30.1759 47.7205 30.1759ZM49.0005 27.2319C51.4005 27.2319 52.9365 25.7919 52.9365 23.3599V22.5279L49.6405 22.7839C47.2085 23.0079 46.2805 23.8079 46.2805 25.0879C46.2805 26.5279 47.2405 27.2319 49.0005 27.2319Z" fill="white"/>
<path d="M36.6389 30.1439C35.2309 30.1439 34.0469 28.9919 34.0469 27.6159C34.0469 26.2079 35.2309 25.0559 36.6389 25.0559C38.0469 25.0559 39.2309 26.2079 39.2309 27.6159C39.2309 28.9919 38.0469 30.1439 36.6389 30.1439Z" fill="white"/>
<path d="M13.2766 29.111L2.47656 14.2221V10.8888L9.22656 8.22212L13.2766 9.33322C16.5016 8.44433 22.9966 6.75545 23.1766 7.111C23.3566 7.46656 24.6016 8.74063 25.2016 9.33322V14.2221L21.6016 21.111V26.2221L13.2766 29.111Z" fill="#F7AABC"/>
<path d="M27 11.3696V11.438C26.9926 11.4734 26.9812 11.508 26.9783 11.5437C26.9581 11.7818 26.9511 12.0218 26.9176 12.2577C26.8367 12.8264 26.6796 13.3767 26.4883 13.9178C26.1812 14.7879 25.7832 15.6179 25.3779 16.4442C25.0527 17.1067 24.7183 17.7645 24.3968 18.4289C24.064 19.1164 23.7623 19.818 23.5262 20.546C23.275 21.3208 23.1293 22.1111 23.1392 22.9301C23.1436 23.2937 23.1238 23.6596 23.0903 24.0221C23.0476 24.4804 22.9954 24.9394 22.9196 25.3932C22.7777 26.2442 22.5194 27.0591 22.1104 27.8229C21.6532 28.6768 21.0201 29.3717 20.2249 29.9202C19.5632 30.3766 18.8385 30.7064 18.0871 30.9817C17.8671 31.0623 17.6453 31.1289 17.45 31.2787C16.7268 31.8323 15.8996 32.0561 14.9951 31.9884C14.5875 31.9578 14.1921 31.8621 13.8062 31.7256C12.9197 31.4116 12.1377 30.9169 11.4039 30.339C10.6804 29.7693 10.026 29.1266 9.41799 28.4365C8.71726 27.6407 8.08349 26.7956 7.53763 25.8853C7.21504 25.3476 6.909 24.7991 6.56839 24.2732C5.8993 23.24 5.12207 22.287 4.343 21.3363C3.65111 20.4916 2.9548 19.6501 2.28278 18.7896C1.60229 17.918 1.00345 16.9923 0.566838 15.9694C0.199006 15.107 0.0014797 14.2089 8.37009e-06 13.2707C-0.000359462 13.0174 0.0114112 12.7635 0.0323776 12.511C0.0651147 12.1142 0.0967482 11.7167 0.152291 11.3228C0.28655 10.3702 0.561688 9.46 1.00934 8.6057C1.36319 7.93065 1.816 7.32995 2.36149 6.79845C2.39754 6.76348 2.42991 6.75686 2.47552 6.77563C2.66679 6.8544 2.86432 6.85881 3.06221 6.80912C3.22369 6.76863 3.38296 6.71931 3.52163 6.67993C3.5106 6.90335 3.49625 7.13266 3.48853 7.36197C3.48301 7.53681 3.5437 7.69287 3.64964 7.82943C3.86078 8.10107 4.15725 8.19934 4.48425 8.20744C4.71378 8.21296 4.94551 8.19897 5.1743 8.17542C5.69883 8.12131 6.21784 8.02524 6.72104 7.87028C7.63768 7.58797 8.52342 7.22578 9.36428 6.76091C9.89249 6.46902 10.3898 6.13297 10.8209 5.70564C10.8393 5.6876 10.8893 5.68134 10.9143 5.69275C11.5654 5.98427 12.2356 6.22278 12.9172 6.43074C13.4101 6.58128 13.9066 6.72373 14.4223 6.76606C14.788 6.79624 15.1558 6.80176 15.5229 6.80507C15.7944 6.80765 16.0614 6.75907 16.3182 6.66741C17.0328 6.41271 17.2981 5.6887 16.9085 5.03795C16.8107 4.87489 16.6856 4.72803 16.5709 4.57565C16.4756 4.4494 16.3766 4.32609 16.27 4.18917C16.5127 4.2072 16.736 4.22487 16.9593 4.24033C17.3764 4.26904 17.7932 4.29775 18.2103 4.32462C18.3493 4.33345 18.4887 4.33934 18.6281 4.34413C18.9268 4.35407 19.2259 4.3721 19.5242 4.36879C19.8313 4.36548 20.1385 4.34707 20.4445 4.32278C20.7347 4.29996 21.0194 4.24732 21.2887 4.1266C21.3288 4.10856 21.3917 4.10856 21.4314 4.12733C21.6558 4.23223 21.8787 4.34081 22.0975 4.45639C22.888 4.87342 23.6141 5.38431 24.2703 5.99126C25.1439 6.79955 25.8575 7.72821 26.3578 8.81329C26.719 9.59655 26.9595 10.4111 26.979 11.2812C26.9798 11.311 26.9926 11.3405 26.9996 11.3703L27 11.3696ZM17.7189 20.3344C17.7189 20.2946 17.7211 20.2545 17.7181 20.2148C17.7155 20.175 17.7082 20.136 17.703 20.0963C17.6431 19.6266 17.4286 19.2493 17.0292 18.9883C16.466 18.6206 15.8172 18.822 15.5648 19.4444C15.4056 19.8371 15.3614 20.2446 15.4681 20.6576C15.5829 21.1015 15.8348 21.4463 16.2597 21.6418C16.739 21.8626 17.2124 21.7184 17.4875 21.2678C17.6618 20.9826 17.7089 20.662 17.7185 20.334L17.7189 20.3344ZM23.1801 16.8594C23.1882 16.7129 23.1381 16.5013 23.0436 16.2992C22.7846 15.7438 22.2134 15.5848 21.7352 15.9646C21.2173 16.3758 20.9234 16.9113 20.9698 17.5963C20.9889 17.8775 21.0827 18.1296 21.2681 18.345C21.5101 18.6258 21.8669 18.7042 22.2046 18.5511C22.3683 18.4767 22.5055 18.3659 22.625 18.2342C22.959 17.8661 23.1771 17.4483 23.1797 16.8594H23.1801ZM7.8981 11.0166C7.90399 11.36 7.92974 11.6254 8.06583 11.8665C8.15485 12.024 8.28617 12.1293 8.46935 12.1488C8.56719 12.1595 8.66724 12.1451 8.76582 12.1495C9.03581 12.162 9.22634 12.0317 9.37421 11.8201C9.54673 11.5735 9.64567 11.2948 9.72182 11.0074C9.83695 10.5716 9.89948 10.1306 9.79685 9.68305C9.738 9.42613 9.62839 9.19977 9.35288 9.1118C9.16823 9.05254 8.97879 9.08861 8.79488 9.11658C8.6025 9.14566 8.47082 9.27854 8.3693 9.43497C8.04303 9.93776 7.93341 10.5035 7.89773 11.0166H7.8981ZM15.9095 26.6807C15.8955 26.1382 15.6803 25.6891 15.2713 25.3347C15.0664 25.1569 14.8273 25.0461 14.5537 25.0255C14.1667 24.9968 13.8191 25.2379 13.687 25.6273C13.5557 26.0145 13.6054 26.3918 13.7661 26.7584C13.9372 27.1482 14.2016 27.4519 14.5938 27.6311C15.0212 27.8266 15.4548 27.7286 15.7105 27.376C15.8598 27.1703 15.9146 26.934 15.9091 26.6804L15.9095 26.6807ZM24.1059 10.3272C24.0982 10.2197 24.0949 10.106 24.0813 9.99297C24.0584 9.8001 24.0235 9.6098 23.919 9.44049C23.7653 9.1913 23.4725 9.06505 23.2076 9.13609C23.0127 9.18836 22.8615 9.30982 22.7383 9.46257C22.3116 9.9926 22.1266 10.6062 22.1365 11.2801C22.1417 11.6434 22.2958 11.9386 22.5879 12.1587C22.7074 12.2489 22.8372 12.2901 22.9881 12.2522C23.2257 12.1922 23.4055 12.0457 23.5564 11.8639C23.9238 11.4211 24.0842 10.9025 24.1055 10.3272H24.1059ZM10.6138 15.1018C10.6215 15.2097 10.6241 15.3183 10.6381 15.425C10.6973 15.8818 10.8625 16.3018 11.1027 16.6908C11.2391 16.9117 11.426 17.0806 11.6846 17.1542C11.9211 17.2216 12.112 17.152 12.2444 16.9441C12.3739 16.7409 12.4151 16.5094 12.4305 16.276C12.4625 15.8008 12.375 15.3444 12.1738 14.913C12.0417 14.63 11.8821 14.362 11.629 14.1673C11.497 14.0657 11.3458 14.009 11.1736 14.0433C10.9474 14.0882 10.8121 14.2391 10.7271 14.4404C10.6381 14.651 10.6098 14.8736 10.6134 15.1018H10.6138ZM3.55879 14.2439C3.58196 14.387 3.5941 14.5564 3.63897 14.7161C3.76845 15.1788 4.03917 15.5564 4.38567 15.8811C4.58026 16.0633 4.79397 16.219 5.05586 16.2937C5.37919 16.3857 5.61607 16.2473 5.68927 15.9197C5.75438 15.6275 5.74113 15.3348 5.65322 15.0507C5.4991 14.5516 5.19858 14.1489 4.80206 13.8154C4.638 13.6774 4.45924 13.5607 4.24994 13.5C3.92 13.4043 3.68458 13.5383 3.60991 13.8721C3.58453 13.9851 3.57754 14.1022 3.55879 14.2439ZM19.4455 24.1591C19.4421 24.416 19.4694 24.667 19.583 24.9007C19.7254 25.1933 19.9751 25.2751 20.2565 25.1131C20.5736 24.9305 20.812 24.6699 20.969 24.3383C21.1754 23.904 21.2497 23.4432 21.2239 22.9661C21.214 22.7784 21.1805 22.5929 21.0945 22.421C20.9418 22.1162 20.6983 22.0393 20.4018 22.2086C20.1804 22.3352 19.9987 22.5086 19.8556 22.7177C19.5591 23.1513 19.4561 23.6427 19.4455 24.1587V24.1591ZM8.66393 19.3531C8.41527 19.3218 8.1497 19.5721 8.24276 19.9233C8.27145 20.0322 8.31007 20.1448 8.37261 20.2369C8.50172 20.4271 8.63781 20.6152 8.7923 20.7849C9.10091 21.1239 9.44594 21.4213 9.87042 21.6101C10.0518 21.6907 10.2401 21.7334 10.4431 21.7025C10.705 21.6631 10.8393 21.4817 10.7775 21.2222C10.7547 21.1261 10.7256 21.0278 10.6793 20.9414C10.3504 20.3307 9.87741 19.8603 9.27196 19.525C9.09209 19.4256 8.89861 19.3564 8.6643 19.3527L8.66393 19.3531ZM17.809 10.29C17.799 10.1671 17.791 9.98487 17.767 9.80452C17.7417 9.61238 17.7034 9.42135 17.6008 9.25167C17.543 9.15634 17.4669 9.0772 17.3462 9.10591C17.2808 9.12137 17.2131 9.16222 17.1656 9.21081C16.967 9.41399 16.8265 9.65692 16.7489 9.92856C16.601 10.4464 16.5933 10.9739 16.6819 11.5028C16.7117 11.6795 16.7518 11.8562 16.8659 12.0034C16.9589 12.1234 17.0796 12.1407 17.2024 12.0512C17.2366 12.0262 17.2708 11.9986 17.2984 11.9666C17.4628 11.7774 17.5861 11.5624 17.6677 11.3261C17.777 11.0103 17.7972 10.6802 17.809 10.2896V10.29Z" fill="#BF1931"/>
<path d="M15.5612 0.788726C15.7197 0.761121 15.8779 0.731675 16.0368 0.70591C16.5474 0.622357 17.0564 0.527394 17.5696 0.461508C17.8988 0.419548 18.2335 0.418444 18.5657 0.405929C18.6403 0.402984 18.7187 0.421756 18.7911 0.444209C18.8765 0.470342 18.8893 0.525185 18.829 0.592543C18.7897 0.636712 18.7429 0.676464 18.6933 0.708854C18.321 0.949575 17.9087 1.09754 17.4886 1.22784C17.1988 1.31802 16.9019 1.36219 16.5996 1.38206C16.455 1.39163 16.3119 1.41593 16.1681 1.43543C16.1534 1.43727 16.1398 1.44942 16.1269 1.47224C16.2119 1.48071 16.2972 1.48696 16.3818 1.49764C16.8273 1.55395 17.2742 1.59959 17.7171 1.67174C18.3508 1.7748 18.9666 1.94963 19.561 2.19588C20.0532 2.39979 20.517 2.65302 20.9282 2.99533C20.9889 3.04576 21.0448 3.10502 21.0905 3.16943C21.1728 3.28574 21.1515 3.3888 21.0228 3.45138C20.9139 3.50401 20.7955 3.55039 20.677 3.56695C20.4214 3.60266 20.1628 3.6218 19.9049 3.6402C19.7262 3.65271 19.5459 3.66155 19.3672 3.65566C18.8779 3.6391 18.3891 3.61554 17.9002 3.59125C17.6163 3.57689 17.3323 3.55959 17.0487 3.53677C16.689 3.50769 16.3296 3.47125 15.9702 3.4396C15.687 3.41457 15.4038 3.39101 15.1202 3.36746C15.0896 3.36488 15.0587 3.36746 15.015 3.36746C15.0242 3.41052 15.0275 3.44328 15.0385 3.47346C15.1908 3.8938 15.4343 4.26225 15.6991 4.61707C15.8731 4.85006 16.0574 5.07532 16.2325 5.30758C16.2796 5.37015 16.3178 5.4434 16.3454 5.51701C16.4131 5.69921 16.3664 5.85233 16.1902 5.93514C16.0489 6.00177 15.8911 6.05109 15.7359 6.06875C14.9355 6.1593 14.1539 6.04814 13.3844 5.82362C12.6314 5.60424 11.8917 5.3488 11.1781 5.02269C11.0085 4.94539 10.8504 4.84344 10.6812 4.74994C10.6242 4.82503 10.5613 4.91558 10.4906 5.00023C10.1316 5.43199 9.6814 5.75221 9.20101 6.03084C8.33182 6.53547 7.40856 6.91717 6.44742 7.2039C5.97586 7.3445 5.49032 7.43542 4.99889 7.47517C4.80137 7.49136 4.60053 7.49468 4.40337 7.47738C4.21835 7.46118 4.18819 7.40376 4.19297 7.21199C4.19886 6.96759 4.25918 6.73387 4.36512 6.51192C4.54168 6.142 4.79438 5.82693 5.06621 5.52584C5.1578 5.42426 5.2538 5.32672 5.34723 5.2266C5.36378 5.20893 5.37739 5.18869 5.39248 5.16955L5.38144 5.1482C5.32627 5.16366 5.26888 5.17397 5.21592 5.19531C4.82859 5.35359 4.44236 5.51517 4.05504 5.67418C3.73355 5.80595 3.41243 5.93846 3.08837 6.0636C3.0023 6.0971 2.90666 6.11219 2.81397 6.12176C2.72422 6.13096 2.70068 6.09231 2.7084 6.00324C2.75034 5.53799 2.98207 5.16256 3.27486 4.81988C3.82183 4.1798 4.5071 3.73443 5.28139 3.41825C5.31302 3.40537 5.34429 3.39175 5.37519 3.37703C5.38144 3.37408 5.38438 3.36414 5.39873 3.34206C5.35569 3.33249 5.31964 3.31629 5.28396 3.31777C4.99154 3.33138 4.69874 3.345 4.40668 3.36525C4.11463 3.38549 3.82293 3.41604 3.53088 3.43592C3.34917 3.44806 3.16672 3.45175 2.98464 3.45175C2.91476 3.45175 2.84413 3.43445 2.77572 3.41678C2.72312 3.40316 2.70215 3.36709 2.71245 3.30562C2.74813 3.0925 2.89158 2.96 3.05269 2.84332C3.37087 2.61364 3.73392 2.47708 4.10249 2.35525C4.72854 2.14839 5.37114 2.01405 6.02184 1.9143C6.04427 1.91099 6.06929 1.91687 6.08952 1.90878C6.12373 1.89516 6.17927 1.87749 6.18258 1.85541C6.1881 1.81676 6.17302 1.75639 6.14432 1.73505C6.08657 1.69235 6.01632 1.65517 5.9468 1.64229C5.77392 1.61064 5.59883 1.5845 5.42337 1.57383C5.17619 1.55874 4.9279 1.56352 4.68035 1.55138C4.51336 1.54328 4.34673 1.52156 4.1801 1.50463C4.15803 1.50242 4.13559 1.49433 4.11463 1.48586C4.01789 1.44684 4.00391 1.38722 4.09366 1.33569C4.23858 1.2525 4.38903 1.17373 4.54572 1.11815C5.0651 0.93338 5.60398 0.829583 6.148 0.747134C6.73433 0.65806 7.32433 0.661741 7.91286 0.684193C8.64411 0.711799 9.37316 0.776212 10.0709 1.02282C10.2453 1.08429 10.4167 1.1557 10.5855 1.23152C10.7088 1.28673 10.8018 1.28158 10.9169 1.19066C11.3903 0.817804 11.9322 0.572667 12.5023 0.387157C13.0346 0.213794 13.5789 0.0963784 14.1366 0.0455841C14.3573 0.02534 14.5791 -0.00042521 14.8002 -5.71359e-05C15.1757 0.000679013 15.5535 0.00840857 15.9132 0.135394C16.0041 0.167417 16.0868 0.228885 16.1644 0.288513C16.2141 0.326425 16.2064 0.370962 16.1427 0.407033C15.9669 0.507149 15.7948 0.613523 15.6219 0.718056C15.5983 0.732411 15.5766 0.750079 15.5542 0.766274L15.5623 0.791303L15.5612 0.788726Z" fill="#77B256"/>
</svg>
