<svg width="66" height="32" viewBox="0 0 66 32" fill="none" xmlns="http://www.w3.org/2000/svg">
<g clip-path="url(#clip0_1687_1237)">
<path d="M62.4977 10.7841C61.1537 10.7841 60.0977 9.72808 60.0977 8.41608C60.0977 7.10408 61.1537 6.08008 62.4977 6.08008C63.7777 6.08008 64.8337 7.10408 64.8337 8.41608C64.8337 9.72808 63.7777 10.7841 62.4977 10.7841ZM60.5457 29.7601V13.9521H64.4497V29.7601H60.5457Z" fill="#0C0C0C"/>
<path d="M47.7205 30.1759C44.3605 30.1759 42.3125 28.2239 42.3125 25.2479C42.3125 22.3359 44.4245 20.5119 48.1685 20.2239L52.9045 19.8719V19.5199C52.9045 17.3759 51.6245 16.5119 49.6405 16.5119C47.3365 16.5119 46.0565 17.4719 46.0565 19.1359H42.7285C42.7285 15.7119 45.5445 13.4719 49.8325 13.4719C54.0885 13.4719 56.7125 15.7759 56.7125 20.1599V29.7599H53.2885L53.0005 27.4239C52.3285 29.0559 50.1845 30.1759 47.7205 30.1759ZM49.0005 27.2319C51.4005 27.2319 52.9365 25.7919 52.9365 23.3599V22.5279L49.6405 22.7839C47.2085 23.0079 46.2805 23.8079 46.2805 25.0879C46.2805 26.5279 47.2405 27.2319 49.0005 27.2319Z" fill="#0C0C0C"/>
<path d="M36.6389 30.1439C35.2309 30.1439 34.0469 28.9919 34.0469 27.6159C34.0469 26.2079 35.2309 25.0559 36.6389 25.0559C38.0469 25.0559 39.2309 26.2079 39.2309 27.6159C39.2309 28.9919 38.0469 30.1439 36.6389 30.1439Z" fill="#0C0C0C"/>
<path d="M16.2766 29.111L5.47656 14.2221V10.8888L12.2266 8.22212L16.2766 9.33322C19.5016 8.44433 25.9966 6.75545 26.1766 7.111C26.3566 7.46656 27.6016 8.74063 28.2016 9.33322V14.2221L24.6016 21.111V26.2221L16.2766 29.111Z" fill="#F7AABC"/>
<path d="M30 11.3696V11.438C29.9926 11.4734 29.9812 11.508 29.9783 11.5437C29.9581 11.7818 29.9511 12.0218 29.9176 12.2577C29.8367 12.8264 29.6796 13.3767 29.4883 13.9178C29.1812 14.7879 28.7832 15.6179 28.3779 16.4442C28.0527 17.1067 27.7183 17.7645 27.3968 18.4289C27.064 19.1164 26.7623 19.818 26.5262 20.546C26.275 21.3208 26.1293 22.1111 26.1392 22.9301C26.1436 23.2937 26.1238 23.6596 26.0903 24.0221C26.0476 24.4804 25.9954 24.9394 25.9196 25.3932C25.7777 26.2442 25.5194 27.0591 25.1104 27.8229C24.6532 28.6768 24.0201 29.3717 23.2249 29.9202C22.5632 30.3766 21.8385 30.7064 21.0871 30.9817C20.8671 31.0623 20.6453 31.1289 20.45 31.2787C19.7268 31.8323 18.8996 32.0561 17.9951 31.9884C17.5875 31.9578 17.1921 31.8621 16.8062 31.7256C15.9197 31.4116 15.1377 30.9169 14.4039 30.339C13.6804 29.7693 13.026 29.1266 12.418 28.4365C11.7173 27.6407 11.0835 26.7956 10.5376 25.8853C10.215 25.3476 9.909 24.7991 9.56839 24.2732C8.8993 23.24 8.12207 22.287 7.343 21.3363C6.65111 20.4916 5.9548 19.6501 5.28278 18.7896C4.60229 17.918 4.00345 16.9923 3.56684 15.9694C3.19901 15.107 3.00148 14.2089 3.00001 13.2707C2.99964 13.0174 3.01141 12.7635 3.03238 12.511C3.06511 12.1142 3.09675 11.7167 3.15229 11.3228C3.28655 10.3702 3.56169 9.46 4.00934 8.6057C4.36319 7.93065 4.816 7.32995 5.36149 6.79845C5.39754 6.76348 5.42991 6.75686 5.47552 6.77563C5.66679 6.8544 5.86432 6.85881 6.06221 6.80912C6.22369 6.76863 6.38296 6.71931 6.52163 6.67993C6.5106 6.90335 6.49625 7.13266 6.48853 7.36197C6.48301 7.53681 6.5437 7.69287 6.64964 7.82943C6.86078 8.10107 7.15725 8.19934 7.48425 8.20744C7.71378 8.21296 7.94551 8.19897 8.1743 8.17542C8.69883 8.12131 9.21784 8.02524 9.72104 7.87028C10.6377 7.58797 11.5234 7.22578 12.3643 6.76091C12.8925 6.46902 13.3898 6.13297 13.8209 5.70564C13.8393 5.6876 13.8893 5.68134 13.9143 5.69275C14.5654 5.98427 15.2356 6.22278 15.9172 6.43074C16.4101 6.58128 16.9066 6.72373 17.4223 6.76606C17.788 6.79624 18.1558 6.80176 18.5229 6.80507C18.7944 6.80765 19.0614 6.75907 19.3182 6.66741C20.0328 6.41271 20.2981 5.6887 19.9085 5.03795C19.8107 4.87489 19.6856 4.72803 19.5709 4.57565C19.4756 4.4494 19.3766 4.32609 19.27 4.18917C19.5127 4.2072 19.736 4.22487 19.9593 4.24033C20.3764 4.26904 20.7932 4.29775 21.2103 4.32462C21.3493 4.33345 21.4887 4.33934 21.6281 4.34413C21.9268 4.35407 22.2259 4.3721 22.5242 4.36879C22.8313 4.36548 23.1385 4.34707 23.4445 4.32278C23.7347 4.29996 24.0194 4.24732 24.2887 4.1266C24.3288 4.10856 24.3917 4.10856 24.4314 4.12733C24.6558 4.23223 24.8787 4.34081 25.0975 4.45639C25.888 4.87342 26.6141 5.38431 27.2703 5.99126C28.1439 6.79955 28.8575 7.72821 29.3578 8.81329C29.719 9.59655 29.9595 10.4111 29.979 11.2812C29.9798 11.311 29.9926 11.3405 29.9996 11.3703L30 11.3696ZM20.7189 20.3344C20.7189 20.2946 20.7211 20.2545 20.7181 20.2148C20.7155 20.175 20.7082 20.136 20.703 20.0963C20.6431 19.6266 20.4286 19.2493 20.0292 18.9883C19.466 18.6206 18.8172 18.822 18.5648 19.4444C18.4056 19.8371 18.3614 20.2446 18.4681 20.6576C18.5829 21.1015 18.8348 21.4463 19.2597 21.6418C19.739 21.8626 20.2124 21.7184 20.4875 21.2678C20.6618 20.9826 20.7089 20.662 20.7185 20.334L20.7189 20.3344ZM26.1801 16.8594C26.1882 16.7129 26.1381 16.5013 26.0436 16.2992C25.7846 15.7438 25.2134 15.5848 24.7352 15.9646C24.2173 16.3758 23.9234 16.9113 23.9698 17.5963C23.9889 17.8775 24.0827 18.1296 24.2681 18.345C24.5101 18.6258 24.8669 18.7042 25.2046 18.5511C25.3683 18.4767 25.5055 18.3659 25.625 18.2342C25.959 17.8661 26.1771 17.4483 26.1797 16.8594H26.1801ZM10.8981 11.0166C10.904 11.36 10.9297 11.6254 11.0658 11.8665C11.1548 12.024 11.2862 12.1293 11.4693 12.1488C11.5672 12.1595 11.6672 12.1451 11.7658 12.1495C12.0358 12.162 12.2263 12.0317 12.3742 11.8201C12.5467 11.5735 12.6457 11.2948 12.7218 11.0074C12.8369 10.5716 12.8995 10.1306 12.7969 9.68305C12.738 9.42613 12.6284 9.19977 12.3529 9.1118C12.1682 9.05254 11.9788 9.08861 11.7949 9.11658C11.6025 9.14566 11.4708 9.27854 11.3693 9.43497C11.043 9.93776 10.9334 10.5035 10.8977 11.0166H10.8981ZM18.9095 26.6807C18.8955 26.1382 18.6803 25.6891 18.2713 25.3347C18.0664 25.1569 17.8273 25.0461 17.5537 25.0255C17.1667 24.9968 16.8191 25.2379 16.687 25.6273C16.5557 26.0145 16.6054 26.3918 16.7661 26.7584C16.9372 27.1482 17.2016 27.4519 17.5938 27.6311C18.0212 27.8266 18.4548 27.7286 18.7105 27.376C18.8598 27.1703 18.9146 26.934 18.9091 26.6804L18.9095 26.6807ZM27.1059 10.3272C27.0982 10.2197 27.0949 10.106 27.0813 9.99297C27.0584 9.8001 27.0235 9.6098 26.919 9.44049C26.7653 9.1913 26.4725 9.06505 26.2076 9.13609C26.0127 9.18836 25.8615 9.30982 25.7383 9.46257C25.3116 9.9926 25.1266 10.6062 25.1365 11.2801C25.1417 11.6434 25.2958 11.9386 25.5879 12.1587C25.7074 12.2489 25.8372 12.2901 25.9881 12.2522C26.2257 12.1922 26.4055 12.0457 26.5564 11.8639C26.9238 11.4211 27.0842 10.9025 27.1055 10.3272H27.1059ZM13.6138 15.1018C13.6215 15.2097 13.6241 15.3183 13.6381 15.425C13.6973 15.8818 13.8625 16.3018 14.1027 16.6908C14.2391 16.9117 14.426 17.0806 14.6846 17.1542C14.9211 17.2216 15.112 17.152 15.2444 16.9441C15.3739 16.7409 15.4151 16.5094 15.4305 16.276C15.4625 15.8008 15.375 15.3444 15.1738 14.913C15.0417 14.63 14.8821 14.362 14.629 14.1673C14.497 14.0657 14.3458 14.009 14.1736 14.0433C13.9474 14.0882 13.8121 14.2391 13.7271 14.4404C13.6381 14.651 13.6098 14.8736 13.6134 15.1018H13.6138ZM6.55879 14.2439C6.58196 14.387 6.5941 14.5564 6.63897 14.7161C6.76845 15.1788 7.03917 15.5564 7.38567 15.8811C7.58026 16.0633 7.79397 16.219 8.05586 16.2937C8.37919 16.3857 8.61607 16.2473 8.68927 15.9197C8.75438 15.6275 8.74113 15.3348 8.65322 15.0507C8.4991 14.5516 8.19858 14.1489 7.80206 13.8154C7.638 13.6774 7.45924 13.5607 7.24994 13.5C6.92 13.4043 6.68458 13.5383 6.60991 13.8721C6.58453 13.9851 6.57754 14.1022 6.55879 14.2439ZM22.4455 24.1591C22.4421 24.416 22.4694 24.667 22.583 24.9007C22.7254 25.1933 22.9751 25.2751 23.2565 25.1131C23.5736 24.9305 23.812 24.6699 23.969 24.3383C24.1754 23.904 24.2497 23.4432 24.2239 22.9661C24.214 22.7784 24.1805 22.5929 24.0945 22.421C23.9418 22.1162 23.6983 22.0393 23.4018 22.2086C23.1804 22.3352 22.9987 22.5086 22.8556 22.7177C22.5591 23.1513 22.4561 23.6427 22.4455 24.1587V24.1591ZM11.6639 19.3531C11.4153 19.3218 11.1497 19.5721 11.2428 19.9233C11.2715 20.0322 11.3101 20.1448 11.3726 20.2369C11.5017 20.4271 11.6378 20.6152 11.7923 20.7849C12.1009 21.1239 12.4459 21.4213 12.8704 21.6101C13.0518 21.6907 13.2401 21.7334 13.4431 21.7025C13.705 21.6631 13.8393 21.4817 13.7775 21.2222C13.7547 21.1261 13.7256 21.0278 13.6793 20.9414C13.3504 20.3307 12.8774 19.8603 12.272 19.525C12.0921 19.4256 11.8986 19.3564 11.6643 19.3527L11.6639 19.3531ZM20.809 10.29C20.799 10.1671 20.791 9.98487 20.767 9.80452C20.7417 9.61238 20.7034 9.42135 20.6008 9.25167C20.543 9.15634 20.4669 9.0772 20.3462 9.10591C20.2808 9.12137 20.2131 9.16222 20.1656 9.21081C19.967 9.41399 19.8265 9.65692 19.7489 9.92856C19.601 10.4464 19.5933 10.9739 19.6819 11.5028C19.7117 11.6795 19.7518 11.8562 19.8659 12.0034C19.9589 12.1234 20.0796 12.1407 20.2024 12.0512C20.2366 12.0262 20.2708 11.9986 20.2984 11.9666C20.4628 11.7774 20.5861 11.5624 20.6677 11.3261C20.777 11.0103 20.7972 10.6802 20.809 10.2896V10.29Z" fill="#BF1931"/>
<path d="M18.5612 0.788726C18.7197 0.761121 18.8779 0.731675 19.0368 0.70591C19.5474 0.622357 20.0564 0.527394 20.5696 0.461508C20.8988 0.419548 21.2335 0.418444 21.5657 0.405929C21.6403 0.402984 21.7187 0.421756 21.7911 0.444209C21.8765 0.470342 21.8893 0.525185 21.829 0.592543C21.7897 0.636712 21.7429 0.676464 21.6933 0.708854C21.321 0.949575 20.9087 1.09754 20.4886 1.22784C20.1988 1.31802 19.9019 1.36219 19.5996 1.38206C19.455 1.39163 19.3119 1.41593 19.1681 1.43543C19.1534 1.43727 19.1398 1.44942 19.1269 1.47224C19.2119 1.48071 19.2972 1.48696 19.3818 1.49764C19.8273 1.55395 20.2742 1.59959 20.7171 1.67174C21.3508 1.7748 21.9666 1.94963 22.561 2.19588C23.0532 2.39979 23.517 2.65302 23.9282 2.99533C23.9889 3.04576 24.0448 3.10502 24.0905 3.16943C24.1728 3.28574 24.1515 3.3888 24.0228 3.45138C23.9139 3.50401 23.7955 3.55039 23.677 3.56695C23.4214 3.60266 23.1628 3.6218 22.9049 3.6402C22.7262 3.65271 22.5459 3.66155 22.3672 3.65566C21.8779 3.6391 21.3891 3.61554 20.9002 3.59125C20.6163 3.57689 20.3323 3.55959 20.0487 3.53677C19.689 3.50769 19.3296 3.47125 18.9702 3.4396C18.687 3.41457 18.4038 3.39101 18.1202 3.36746C18.0896 3.36488 18.0587 3.36746 18.015 3.36746C18.0242 3.41052 18.0275 3.44328 18.0385 3.47346C18.1908 3.8938 18.4343 4.26225 18.6991 4.61707C18.8731 4.85006 19.0574 5.07532 19.2325 5.30758C19.2796 5.37015 19.3178 5.4434 19.3454 5.51701C19.4131 5.69921 19.3664 5.85233 19.1902 5.93514C19.0489 6.00177 18.8911 6.05109 18.7359 6.06875C17.9355 6.1593 17.1539 6.04814 16.3844 5.82362C15.6314 5.60424 14.8917 5.3488 14.1781 5.02269C14.0085 4.94539 13.8504 4.84344 13.6812 4.74994C13.6242 4.82503 13.5613 4.91558 13.4906 5.00023C13.1316 5.43199 12.6814 5.75221 12.201 6.03084C11.3318 6.53547 10.4086 6.91717 9.44742 7.2039C8.97586 7.3445 8.49032 7.43542 7.99889 7.47517C7.80137 7.49136 7.60053 7.49468 7.40337 7.47738C7.21835 7.46118 7.18819 7.40376 7.19297 7.21199C7.19886 6.96759 7.25918 6.73387 7.36512 6.51192C7.54168 6.142 7.79438 5.82693 8.06621 5.52584C8.1578 5.42426 8.2538 5.32672 8.34723 5.2266C8.36378 5.20893 8.37739 5.18869 8.39248 5.16955L8.38144 5.1482C8.32627 5.16366 8.26888 5.17397 8.21592 5.19531C7.82859 5.35359 7.44236 5.51517 7.05504 5.67418C6.73355 5.80595 6.41243 5.93846 6.08837 6.0636C6.0023 6.0971 5.90666 6.11219 5.81397 6.12176C5.72422 6.13096 5.70068 6.09231 5.7084 6.00324C5.75034 5.53799 5.98207 5.16256 6.27486 4.81988C6.82183 4.1798 7.5071 3.73443 8.28139 3.41825C8.31302 3.40537 8.34429 3.39175 8.37519 3.37703C8.38144 3.37408 8.38438 3.36414 8.39873 3.34206C8.35569 3.33249 8.31964 3.31629 8.28396 3.31777C7.99154 3.33138 7.69874 3.345 7.40668 3.36525C7.11463 3.38549 6.82293 3.41604 6.53088 3.43592C6.34917 3.44806 6.16672 3.45175 5.98464 3.45175C5.91476 3.45175 5.84413 3.43445 5.77572 3.41678C5.72312 3.40316 5.70215 3.36709 5.71245 3.30562C5.74813 3.0925 5.89158 2.96 6.05269 2.84332C6.37087 2.61364 6.73392 2.47708 7.10249 2.35525C7.72854 2.14839 8.37114 2.01405 9.02184 1.9143C9.04427 1.91099 9.06929 1.91687 9.08952 1.90878C9.12373 1.89516 9.17927 1.87749 9.18258 1.85541C9.1881 1.81676 9.17302 1.75639 9.14432 1.73505C9.08657 1.69235 9.01632 1.65517 8.9468 1.64229C8.77392 1.61064 8.59883 1.5845 8.42337 1.57383C8.17619 1.55874 7.9279 1.56352 7.68035 1.55138C7.51336 1.54328 7.34673 1.52156 7.1801 1.50463C7.15803 1.50242 7.13559 1.49433 7.11463 1.48586C7.01789 1.44684 7.00391 1.38722 7.09366 1.33569C7.23858 1.2525 7.38903 1.17373 7.54572 1.11815C8.0651 0.93338 8.60398 0.829583 9.148 0.747134C9.73433 0.65806 10.3243 0.661741 10.9129 0.684193C11.6441 0.711799 12.3732 0.776212 13.0709 1.02282C13.2453 1.08429 13.4167 1.1557 13.5855 1.23152C13.7088 1.28673 13.8018 1.28158 13.9169 1.19066C14.3903 0.817804 14.9322 0.572667 15.5023 0.387157C16.0346 0.213794 16.5789 0.0963784 17.1366 0.0455841C17.3573 0.02534 17.5791 -0.00042521 17.8002 -5.71359e-05C18.1757 0.000679013 18.5535 0.00840857 18.9132 0.135394C19.0041 0.167417 19.0868 0.228885 19.1644 0.288513C19.2141 0.326425 19.2064 0.370962 19.1427 0.407033C18.9669 0.507149 18.7948 0.613523 18.6219 0.718056C18.5983 0.732411 18.5766 0.750079 18.5542 0.766274L18.5623 0.791303L18.5612 0.788726Z" fill="#77B256"/>
</g>
<defs>
<clipPath id="clip0_1687_1237">
<rect width="66" height="32" fill="white"/>
</clipPath>
</defs>
</svg>
