<svg width="320" height="320" viewBox="0 0 320 320" fill="none" xmlns="http://www.w3.org/2000/svg">
<g clip-path="url(#clip0_1599_5081)">
<circle cx="159.884" cy="162.931" r="138.227" transform="rotate(-90 159.884 162.931)" fill="#0F0F0F" stroke="#393939"/>
<rect x="160" y="163" width="138" height="1.00001" transform="rotate(-90 160 163)" fill="#393939"/>
<rect x="159.699" y="163.053" width="137.727" height="1" transform="rotate(-122.73 159.699 163.053)" fill="#393939"/>
<rect x="159.742" y="163.169" width="137.727" height="1" transform="rotate(-155.46 159.742 163.169)" fill="#393939"/>
<rect x="159.844" y="163.244" width="137.727" height="1" transform="rotate(171.81 159.844 163.244)" fill="#393939"/>
<rect x="159.969" y="163.253" width="137.727" height="1" transform="rotate(139.08 159.969 163.253)" fill="#393939"/>
<rect x="160.07" y="163.194" width="137.727" height="1" transform="rotate(106.35 160.07 163.194)" fill="#393939"/>
<rect x="160.133" y="163.085" width="137.727" height="1" transform="rotate(73.62 160.133 163.085)" fill="#393939"/>
<rect x="160.129" y="162.962" width="137.727" height="1" transform="rotate(40.89 160.129 162.962)" fill="#393939"/>
<rect x="160.055" y="162.862" width="137.727" height="1" transform="rotate(8.15998 160.055 162.862)" fill="#393939"/>
<rect x="159.934" y="162.819" width="137.727" height="1" transform="rotate(-24.57 159.934 162.819)" fill="#393939"/>
<rect x="159.812" y="162.845" width="137.727" height="1" transform="rotate(-57.3 159.812 162.845)" fill="#393939"/>
<path d="M181 139.405C181 155.421 171.892 163 160.001 163C148.109 163 139 155.421 139 139.405C139 123.388 148.108 105 160 105C171.892 105 181 123.388 181 139.405Z" fill="#E22424" style="mix-blend-mode:screen"/>
<path d="M165.322 129.569C174.448 143.768 170.556 155.765 159.836 162.655C149.115 169.545 136.585 168.104 127.459 153.905C118.333 139.706 116.066 118.127 126.787 111.236C137.507 104.346 156.196 115.37 165.322 129.569Z" fill="#24BF50" style="mix-blend-mode:screen"/>
<path d="M145.496 129.839C162.041 137.393 165.502 150.535 159.799 163.027C154.096 175.519 141.898 181.512 125.353 173.958C108.808 166.404 94.1808 148.164 99.8842 135.672C105.588 123.18 128.951 122.286 145.496 129.839Z" fill="#24BF50" style="mix-blend-mode:screen"/>
<path d="M141.874 151.008C152.649 149.457 158.645 154.954 159.816 163.089C160.987 171.225 156.785 178.19 146.009 179.741C135.234 181.292 121.966 176.841 120.796 168.706C119.625 160.57 131.099 152.559 141.874 151.008Z" fill="#24BF50" style="mix-blend-mode:screen"/>
<path d="M137.634 162.66C146.09 155.329 154.331 156.75 159.865 163.135C165.4 169.52 165.637 177.879 157.181 185.21C148.724 192.54 134.777 196.066 129.242 189.681C123.707 183.296 129.177 169.99 137.634 162.66Z" fill="#9326FF" style="mix-blend-mode:screen"/>
<path d="M114.511 190.984C122.057 165.261 140.503 157.452 159.925 163.15C179.346 168.847 190.651 185.384 183.105 211.108C175.559 236.831 152.019 262 132.597 256.303C113.176 250.605 106.964 216.708 114.511 190.984Z" fill="#9326FF" style="mix-blend-mode:screen"/>
<path d="M132.529 220.015C123.564 189.516 136.958 169.899 159.986 163.13C183.014 156.361 204.895 165.61 213.86 196.109C222.825 226.609 215.48 266.81 192.452 273.578C169.424 280.347 141.494 250.515 132.529 220.015Z" fill="#9326FF" style="mix-blend-mode:screen"/>
<path d="M165.698 209.544C147.888 194.123 148.378 176.527 160.022 163.08C171.666 149.633 189.012 146.632 206.821 162.053C224.631 177.475 236.16 205.48 224.516 218.926C212.873 232.373 183.508 224.966 165.698 209.544Z" fill="#E22424" style="mix-blend-mode:screen"/>
<path d="M187.952 196.655C166.173 193.532 157.673 179.461 160.031 163.017C162.388 146.574 174.5 135.457 196.279 138.579C218.058 141.702 241.257 157.882 238.899 174.325C236.541 190.769 209.731 199.778 187.952 196.655Z" fill="#E22424" style="mix-blend-mode:screen"/>
<path d="M215.023 180.389C188.605 192.468 169.119 182.907 160 162.961C150.88 143.015 156.397 122.022 182.814 109.943C209.232 97.8651 246.547 99.2749 255.667 119.221C264.786 139.167 241.44 168.311 215.023 180.389Z" fill="#E22424" style="mix-blend-mode:screen"/>
<path d="M221.936 146.14C204.474 173.34 180.482 176.114 159.945 162.93C139.408 149.745 131.941 126.775 149.404 99.5751C166.866 72.375 202.643 51.2445 223.18 64.4288C243.717 77.6132 239.398 118.94 221.936 146.14Z" fill="#E22424" style="mix-blend-mode:screen"/>
<path d="M164.148 10.1135C164.148 11.1065 163.96 11.9513 163.583 12.6479C163.21 13.3445 162.7 13.8766 162.054 14.2441C161.41 14.6087 160.687 14.791 159.884 14.791C159.075 14.791 158.348 14.6072 157.705 14.2397C157.062 13.8721 156.554 13.34 156.18 12.6435C155.807 11.9469 155.62 11.1036 155.62 10.1135C155.62 9.12053 155.807 8.27574 156.18 7.57916C156.554 6.88258 157.062 6.35199 157.705 5.98739C158.348 5.61984 159.075 5.43606 159.884 5.43606C160.687 5.43606 161.41 5.61984 162.054 5.98739C162.7 6.35199 163.21 6.88258 163.583 7.57916C163.96 8.27574 164.148 9.12053 164.148 10.1135ZM162.196 10.1135C162.196 9.4703 162.1 8.92786 161.907 8.4862C161.717 8.04453 161.449 7.70958 161.102 7.48134C160.755 7.2531 160.349 7.13898 159.884 7.13898C159.419 7.13898 159.012 7.2531 158.666 7.48134C158.319 7.70958 158.049 8.04453 157.856 8.4862C157.667 8.92786 157.572 9.4703 157.572 10.1135C157.572 10.7568 157.667 11.2992 157.856 11.7409C158.049 12.1825 158.319 12.5175 158.666 12.7457C159.012 12.974 159.419 13.0881 159.884 13.0881C160.349 13.0881 160.755 12.974 161.102 12.7457C161.449 12.5175 161.717 12.1825 161.907 11.7409C162.1 11.2992 162.196 10.7568 162.196 10.1135Z" fill="white"/>
<path d="M70.3621 38.9565V29.8506H76.4979V31.4379H72.2873V33.6077H76.1823V35.195H72.2873V37.3692H76.5157V38.9565H70.3621ZM78.0286 38.9565V29.8506H84.1644V31.4379H79.9538V33.6077H83.8487V35.195H79.9538V37.3692H84.1822V38.9565H78.0286Z" fill="white"/>
<path d="M13.7103 104.073V94.9668H19.8461V96.5541H15.6355V98.7239H19.5304V100.311H15.6355V102.485H19.8639V104.073H13.7103ZM26.3166 97.5857C26.281 97.227 26.1283 96.9484 25.8586 96.7498C25.5889 96.5512 25.2228 96.4519 24.7604 96.4519C24.4462 96.4519 24.1809 96.4963 23.9645 96.5852C23.7481 96.6712 23.5821 96.7913 23.4665 96.9454C23.3539 97.0995 23.2975 97.2744 23.2975 97.4701C23.2916 97.6331 23.3257 97.7754 23.3998 97.8969C23.4769 98.0184 23.5821 98.1237 23.7155 98.2126C23.8489 98.2985 24.003 98.3741 24.1779 98.4393C24.3528 98.5016 24.5395 98.5549 24.7381 98.5994L25.5562 98.795C25.9534 98.884 26.318 99.0025 26.65 99.1507C26.982 99.2989 27.2695 99.4812 27.5126 99.6976C27.7557 99.914 27.9439 100.169 28.0773 100.462C28.2136 100.756 28.2833 101.092 28.2863 101.472C28.2833 102.029 28.141 102.512 27.8594 102.921C27.5808 103.327 27.1777 103.643 26.65 103.868C26.1254 104.091 25.4925 104.202 24.7515 104.202C24.0164 104.202 23.3761 104.089 22.8307 103.864C22.2882 103.639 21.8644 103.305 21.5591 102.863C21.2567 102.419 21.0981 101.869 21.0833 101.214H22.9463C22.967 101.519 23.0545 101.774 23.2086 101.979C23.3657 102.18 23.5747 102.333 23.8355 102.437C24.0994 102.537 24.3973 102.588 24.7292 102.588C25.0553 102.588 25.3384 102.54 25.5785 102.445C25.8215 102.351 26.0098 102.219 26.1432 102.05C26.2765 101.881 26.3432 101.687 26.3432 101.467C26.3432 101.263 26.2825 101.091 26.1609 100.951C26.0424 100.812 25.8675 100.694 25.6363 100.596C25.408 100.498 25.1279 100.409 24.7959 100.329L23.8044 100.08C23.0367 99.8933 22.4305 99.6013 21.9859 99.2041C21.5413 98.8069 21.3204 98.2719 21.3234 97.599C21.3204 97.0477 21.4672 96.566 21.7636 96.154C22.063 95.7419 22.4735 95.4203 22.9952 95.1891C23.5169 94.9579 24.1097 94.8423 24.7737 94.8423C25.4495 94.8423 26.0394 94.9579 26.5433 95.1891C27.0502 95.4203 27.4444 95.7419 27.726 96.154C28.0076 96.566 28.1529 97.0432 28.1618 97.5857H26.3166Z" fill="white"/>
<path d="M3.96807 189.323L3.96807 180.217H10.1039V181.804H5.8933V183.974H9.78823V185.561H5.8933V187.735H10.1217V189.323H3.96807ZM13.5598 180.217V189.323H11.6345V180.217H13.5598Z" fill="white"/>
<path d="M41.1784 267.676V258.57H44.7709C45.4616 258.57 46.05 258.702 46.5361 258.966C47.0222 259.227 47.3928 259.59 47.6477 260.055C47.9056 260.518 48.0345 261.051 48.0345 261.656C48.0345 262.261 47.9041 262.794 47.6432 263.257C47.3824 263.719 47.0045 264.079 46.5094 264.337C46.0174 264.595 45.4216 264.724 44.722 264.724H42.4322V263.181H44.4108C44.7813 263.181 45.0866 263.117 45.3267 262.99C45.5698 262.859 45.7506 262.68 45.8692 262.452C45.9907 262.221 46.0515 261.955 46.0515 261.656C46.0515 261.354 45.9907 261.09 45.8692 260.864C45.7506 260.636 45.5698 260.46 45.3267 260.335C45.0837 260.208 44.7754 260.144 44.4019 260.144H43.1036V267.676H41.1784Z" fill="white"/>
<path d="M116.617 305.107V314.213H114.954L110.992 308.481H110.925V314.213H109V305.107H110.69L114.62 310.833H114.7V305.107H116.617ZM118.207 314.213V305.107H121.8C122.488 305.107 123.075 305.23 123.561 305.476C124.05 305.719 124.422 306.064 124.677 306.512C124.935 306.956 125.064 307.479 125.064 308.081C125.064 308.686 124.933 309.206 124.672 309.642C124.411 310.075 124.033 310.407 123.538 310.638C123.046 310.869 122.451 310.985 121.751 310.985H119.346V309.437H121.44C121.807 309.437 122.113 309.387 122.356 309.286C122.599 309.185 122.78 309.034 122.898 308.833C123.02 308.631 123.08 308.381 123.08 308.081C123.08 307.779 123.02 307.524 122.898 307.316C122.78 307.109 122.597 306.952 122.351 306.845C122.108 306.735 121.801 306.681 121.431 306.681H120.133V314.213H118.207ZM123.125 310.069L125.388 314.213H123.263L121.049 310.069H123.125Z" fill="white"/>
<path d="M198.128 305.064H200.503L203.01 311.182H203.117L205.625 305.064H207.999V314.17H206.132V308.243H206.056L203.699 314.125H202.428L200.071 308.22H199.996V314.17H198.128V305.064Z" fill="white"/>
<path d="M279.307 258.454V267.56H277.644L273.683 261.829H273.616V267.56H271.691V258.454H273.38L277.311 264.181H277.391V258.454H279.307Z" fill="white"/>
<path d="M308.915 189.185H306.852L309.996 180.079H312.477L315.616 189.185H313.553L311.272 182.16H311.2L308.915 189.185ZM308.786 185.606H313.659V187.109H308.786V185.606Z" fill="white"/>
<path d="M295.883 103.932L295.883 94.8265H302.019V96.4139H297.808V98.5836H301.703V100.171H297.808V102.345H302.036V103.932H295.883Z" fill="white"/>
<path d="M246.586 32.9557H244.638C244.603 32.7037 244.53 32.4799 244.421 32.2843C244.311 32.0857 244.17 31.9167 243.998 31.7774C243.826 31.6381 243.628 31.5314 243.402 31.4573C243.18 31.3832 242.939 31.3461 242.678 31.3461C242.206 31.3461 241.796 31.4632 241.446 31.6974C241.096 31.9286 240.825 32.2665 240.632 32.7111C240.44 33.1528 240.343 33.6893 240.343 34.3207C240.343 34.9698 240.44 35.5152 240.632 35.9569C240.828 36.3986 241.101 36.732 241.451 36.9573C241.8 37.1826 242.205 37.2952 242.664 37.2952C242.922 37.2952 243.161 37.2611 243.38 37.193C243.603 37.1248 243.8 37.0255 243.972 36.8951C244.143 36.7617 244.286 36.6001 244.398 36.4104C244.514 36.2207 244.594 36.0043 244.638 35.7613L246.586 35.7702C246.536 36.1881 246.41 36.5912 246.208 36.9795C246.009 37.3649 245.741 37.7102 245.403 38.0155C245.068 38.3179 244.668 38.558 244.203 38.7358C243.74 38.9107 243.217 38.9982 242.633 38.9982C241.821 38.9982 241.095 38.8144 240.455 38.4468C239.817 38.0793 239.313 37.5472 238.943 36.8506C238.575 36.154 238.391 35.3107 238.391 34.3207C238.391 33.3277 238.578 32.4829 238.952 31.7863C239.325 31.0897 239.832 30.5591 240.472 30.1945C241.113 29.827 241.833 29.6432 242.633 29.6432C243.161 29.6432 243.65 29.7173 244.1 29.8655C244.554 30.0137 244.956 30.2301 245.305 30.5147C245.655 30.7963 245.94 31.1416 246.159 31.5507C246.381 31.9597 246.524 32.4281 246.586 32.9557Z" fill="white"/>
</g>
<defs>
<clipPath id="clip0_1599_5081">
<rect width="320" height="320" fill="white"/>
</clipPath>
</defs>
</svg>
