<svg width="320" height="320" viewBox="0 0 320 320" fill="none" xmlns="http://www.w3.org/2000/svg">
<g clip-path="url(#clip0_1599_5155)">
<circle cx="159.884" cy="162.931" r="138.227" transform="rotate(-90 159.884 162.931)" fill="#0F0F0F" stroke="#393939"/>
<rect x="160" y="163" width="138" height="1.00001" transform="rotate(-90 160 163)" fill="#393939"/>
<rect x="159.699" y="163.053" width="137.727" height="1" transform="rotate(-122.73 159.699 163.053)" fill="#393939"/>
<rect x="159.742" y="163.169" width="137.727" height="1" transform="rotate(-155.46 159.742 163.169)" fill="#393939"/>
<rect x="159.844" y="163.244" width="137.727" height="1" transform="rotate(171.81 159.844 163.244)" fill="#393939"/>
<rect x="159.969" y="163.253" width="137.727" height="1" transform="rotate(139.08 159.969 163.253)" fill="#393939"/>
<rect x="160.07" y="163.194" width="137.727" height="1" transform="rotate(106.35 160.07 163.194)" fill="#393939"/>
<rect x="160.133" y="163.086" width="137.727" height="1" transform="rotate(73.62 160.133 163.086)" fill="#393939"/>
<rect x="160.129" y="162.962" width="137.727" height="1" transform="rotate(40.89 160.129 162.962)" fill="#393939"/>
<rect x="160.055" y="162.863" width="137.727" height="1" transform="rotate(8.15998 160.055 162.863)" fill="#393939"/>
<rect x="159.934" y="162.819" width="137.727" height="1" transform="rotate(-24.57 159.934 162.819)" fill="#393939"/>
<rect x="159.812" y="162.845" width="137.727" height="1" transform="rotate(-57.3 159.812 162.845)" fill="#393939"/>
<path d="M204 113.775C204 147.188 184.701 163 159.501 163C134.302 163 115 147.188 115 113.775C115 80.3619 134.301 42.0001 159.5 42.0001C184.699 42.0001 204 80.3619 204 113.775Z" fill="#E22424" style="mix-blend-mode:screen"/>
<path d="M169.354 105.267C185.183 129.895 178.432 150.703 159.837 162.655C141.242 174.607 119.508 172.106 103.679 147.478C87.8496 122.849 83.918 85.4194 102.513 73.4678C121.108 61.5162 153.524 80.6383 169.354 105.267Z" fill="#24BF50" style="mix-blend-mode:screen"/>
<path d="M151.695 144.221C161.071 148.501 163.032 155.948 159.8 163.027C156.568 170.106 149.656 173.503 140.281 169.222C130.905 164.941 122.616 154.605 125.848 147.526C129.08 140.447 142.32 139.94 151.695 144.221Z" fill="#24BF50" style="mix-blend-mode:screen"/>
<path d="M97.1354 120.88C134.78 115.462 155.727 134.666 159.818 163.089C163.908 191.511 149.227 215.845 111.583 221.263C73.9384 226.681 27.5857 211.133 23.495 182.71C19.4043 154.288 59.4909 126.298 97.1354 120.88Z" fill="#24BF50" style="mix-blend-mode:screen"/>
<path d="M84.3154 161.519C113.054 136.607 141.058 141.436 159.867 163.134C178.675 184.832 179.483 213.241 150.744 238.152C122.006 263.064 74.6059 275.046 55.7972 253.348C36.9886 231.649 55.5772 186.43 84.3154 161.519Z" fill="#9326FF" style="mix-blend-mode:screen"/>
<path d="M126.718 183.502C132.235 164.694 145.722 158.984 159.923 163.15C174.124 167.316 182.39 179.407 176.872 198.216C171.354 217.024 154.143 235.427 139.942 231.261C125.741 227.095 121.2 202.311 126.718 183.502Z" fill="#9326FF" style="mix-blend-mode:screen"/>
<path d="M153.305 176.972C151.124 169.55 154.383 164.777 159.986 163.13C165.59 161.483 170.914 163.733 173.095 171.155C175.277 178.576 173.49 188.358 167.886 190.005C162.283 191.652 155.487 184.393 153.305 176.972Z" fill="#9326FF" style="mix-blend-mode:screen"/>
<path d="M162.224 181.081C155.324 175.106 155.514 168.289 160.025 163.08C164.536 157.87 171.256 156.708 178.156 162.682C185.055 168.657 189.522 179.506 185.011 184.715C180.5 189.924 169.124 187.055 162.224 181.081Z" fill="#E22424" style="mix-blend-mode:screen"/>
<path d="M207.906 220.691C170.565 215.337 155.991 191.211 160.034 163.018C164.076 134.825 184.843 115.764 222.183 121.119C259.524 126.473 299.298 154.213 295.256 182.406C291.213 210.599 245.246 226.045 207.906 220.691Z" fill="#E22424" style="mix-blend-mode:screen"/>
<path d="M208.275 178.251C185.098 188.848 168.002 180.46 160.002 162.961C152.001 145.462 156.841 127.044 180.018 116.447C203.195 105.85 235.933 107.087 243.933 124.586C251.934 142.086 231.452 167.655 208.275 178.251Z" fill="#E22424" style="mix-blend-mode:screen"/>
<path d="M216.528 147.605C200.59 172.431 178.691 174.963 159.947 162.93C141.202 150.896 134.387 129.93 150.326 105.104C166.264 80.2776 198.919 60.9912 217.664 73.0249C236.408 85.0587 232.466 122.779 216.528 147.605Z" fill="#E22424" style="mix-blend-mode:screen"/>
<path d="M164.148 10.1137C164.148 11.1066 163.96 11.9514 163.583 12.648C163.21 13.3446 162.7 13.8767 162.054 14.2442C161.41 14.6088 160.687 14.7911 159.884 14.7911C159.075 14.7911 158.348 14.6073 157.705 14.2398C157.062 13.8722 156.554 13.3402 156.18 12.6436C155.807 11.947 155.62 11.1037 155.62 10.1137C155.62 9.12065 155.807 8.27586 156.18 7.57928C156.554 6.8827 157.062 6.35211 157.705 5.98752C158.348 5.61996 159.075 5.43618 159.884 5.43618C160.687 5.43618 161.41 5.61996 162.054 5.98752C162.7 6.35211 163.21 6.8827 163.583 7.57928C163.96 8.27586 164.148 9.12065 164.148 10.1137ZM162.196 10.1137C162.196 9.47042 162.1 8.92798 161.907 8.48632C161.717 8.04466 161.449 7.7097 161.102 7.48146C160.755 7.25322 160.349 7.1391 159.884 7.1391C159.419 7.1391 159.012 7.25322 158.666 7.48146C158.319 7.7097 158.049 8.04466 157.856 8.48632C157.667 8.92798 157.572 9.47042 157.572 10.1137C157.572 10.7569 157.667 11.2993 157.856 11.741C158.049 12.1826 158.319 12.5176 158.666 12.7458C159.012 12.9741 159.419 13.0882 159.884 13.0882C160.349 13.0882 160.755 12.9741 161.102 12.7458C161.449 12.5176 161.717 12.1826 161.907 11.741C162.1 11.2993 162.196 10.7569 162.196 10.1137Z" fill="white"/>
<path d="M70.3621 38.9567V29.8507H76.4979V31.438H72.2873V33.6078H76.1823V35.1951H72.2873V37.3693H76.5157V38.9567H70.3621ZM78.0286 38.9567V29.8507H84.1644V31.438H79.9538V33.6078H83.8487V35.1951H79.9538V37.3693H84.1822V38.9567H78.0286Z" fill="white"/>
<path d="M13.7103 104.073V94.9669H19.8461V96.5542H15.6355V98.724H19.5304V100.311H15.6355V102.486H19.8639V104.073H13.7103ZM26.3166 97.5858C26.281 97.2271 26.1283 96.9485 25.8586 96.7499C25.5889 96.5513 25.2228 96.452 24.7604 96.452C24.4462 96.452 24.1809 96.4964 23.9645 96.5854C23.7481 96.6713 23.5821 96.7914 23.4665 96.9455C23.3539 97.0997 23.2975 97.2745 23.2975 97.4702C23.2916 97.6332 23.3257 97.7755 23.3998 97.897C23.4769 98.0185 23.5821 98.1238 23.7155 98.2127C23.8489 98.2987 24.003 98.3742 24.1779 98.4395C24.3528 98.5017 24.5395 98.5551 24.7381 98.5995L25.5562 98.7952C25.9534 98.8841 26.318 99.0027 26.65 99.1509C26.982 99.2991 27.2695 99.4814 27.5126 99.6978C27.7557 99.9141 27.9439 100.169 28.0773 100.463C28.2136 100.756 28.2833 101.092 28.2863 101.472C28.2833 102.029 28.141 102.512 27.8594 102.921C27.5808 103.327 27.1777 103.643 26.65 103.868C26.1254 104.091 25.4925 104.202 24.7515 104.202C24.0164 104.202 23.3761 104.089 22.8307 103.864C22.2882 103.639 21.8644 103.305 21.5591 102.863C21.2567 102.419 21.0981 101.869 21.0833 101.214H22.9463C22.967 101.519 23.0545 101.774 23.2086 101.979C23.3657 102.18 23.5747 102.333 23.8355 102.437C24.0994 102.537 24.3973 102.588 24.7292 102.588C25.0553 102.588 25.3384 102.54 25.5785 102.446C25.8215 102.351 26.0098 102.219 26.1432 102.05C26.2765 101.881 26.3432 101.687 26.3432 101.467C26.3432 101.263 26.2825 101.091 26.1609 100.952C26.0424 100.812 25.8675 100.694 25.6363 100.596C25.408 100.498 25.1279 100.409 24.7959 100.329L23.8044 100.08C23.0367 99.8934 22.4305 99.6014 21.9859 99.2042C21.5413 98.807 21.3204 98.272 21.3234 97.5991C21.3204 97.0478 21.4672 96.5661 21.7636 96.1541C22.063 95.7421 22.4735 95.4204 22.9952 95.1892C23.5169 94.958 24.1097 94.8424 24.7737 94.8424C25.4495 94.8424 26.0394 94.958 26.5433 95.1892C27.0502 95.4204 27.4444 95.7421 27.726 96.1541C28.0076 96.5661 28.1529 97.0433 28.1618 97.5858H26.3166Z" fill="white"/>
<path d="M3.96807 189.323L3.96807 180.217H10.1039V181.804H5.8933V183.974H9.78823V185.561H5.8933V187.735H10.1217V189.323H3.96807ZM13.5598 180.217V189.323H11.6345V180.217H13.5598Z" fill="white"/>
<path d="M41.1784 267.676V258.57H44.7709C45.4616 258.57 46.05 258.702 46.5361 258.966C47.0222 259.227 47.3928 259.59 47.6477 260.055C47.9056 260.518 48.0345 261.051 48.0345 261.656C48.0345 262.261 47.9041 262.794 47.6432 263.257C47.3824 263.719 47.0045 264.079 46.5094 264.337C46.0174 264.595 45.4216 264.724 44.722 264.724H42.4322V263.181H44.4108C44.7813 263.181 45.0866 263.117 45.3267 262.99C45.5698 262.859 45.7506 262.68 45.8692 262.452C45.9907 262.221 46.0515 261.955 46.0515 261.656C46.0515 261.354 45.9907 261.09 45.8692 260.865C45.7506 260.636 45.5698 260.46 45.3267 260.335C45.0837 260.208 44.7754 260.144 44.4019 260.144H43.1036V267.676H41.1784Z" fill="white"/>
<path d="M116.617 305.107V314.213H114.954L110.992 308.481H110.925V314.213H109V305.107H110.69L114.62 310.833H114.7V305.107H116.617ZM118.207 314.213V305.107H121.8C122.488 305.107 123.075 305.23 123.561 305.476C124.05 305.719 124.422 306.064 124.677 306.512C124.935 306.956 125.064 307.479 125.064 308.081C125.064 308.686 124.933 309.206 124.672 309.642C124.411 310.075 124.033 310.407 123.538 310.638C123.046 310.869 122.451 310.985 121.751 310.985H119.346V309.437H121.44C121.807 309.437 122.113 309.387 122.356 309.286C122.599 309.185 122.78 309.034 122.898 308.833C123.02 308.631 123.08 308.381 123.08 308.081C123.08 307.779 123.02 307.524 122.898 307.316C122.78 307.109 122.597 306.952 122.351 306.845C122.108 306.735 121.801 306.681 121.431 306.681H120.133V314.213H118.207ZM123.125 310.069L125.388 314.213H123.263L121.049 310.069H123.125Z" fill="white"/>
<path d="M198.128 305.064H200.503L203.01 311.182H203.117L205.625 305.064H207.999V314.17H206.132V308.243H206.056L203.699 314.125H202.428L200.071 308.221H199.996V314.17H198.128V305.064Z" fill="white"/>
<path d="M279.307 258.454V267.56H277.644L273.683 261.829H273.616V267.56H271.691V258.454H273.38L277.311 264.181H277.391V258.454H279.307Z" fill="white"/>
<path d="M308.915 189.185H306.852L309.996 180.079H312.477L315.616 189.185H313.553L311.272 182.16H311.2L308.915 189.185ZM308.786 185.606H313.659V187.109H308.786V185.606Z" fill="white"/>
<path d="M295.883 103.933L295.883 94.8267H302.019V96.414H297.808V98.5838H301.703V100.171H297.808V102.345H302.036V103.933H295.883Z" fill="white"/>
<path d="M246.586 32.9557H244.638C244.603 32.7037 244.53 32.4799 244.421 32.2843C244.311 32.0857 244.17 31.9167 243.998 31.7774C243.826 31.6381 243.628 31.5314 243.402 31.4573C243.18 31.3832 242.939 31.3461 242.678 31.3461C242.206 31.3461 241.796 31.4632 241.446 31.6974C241.096 31.9286 240.825 32.2665 240.632 32.7111C240.44 33.1528 240.343 33.6893 240.343 34.3207C240.343 34.9698 240.44 35.5152 240.632 35.9569C240.828 36.3986 241.101 36.732 241.451 36.9573C241.8 37.1826 242.205 37.2952 242.664 37.2952C242.922 37.2952 243.161 37.2611 243.38 37.193C243.603 37.1248 243.8 37.0255 243.972 36.8951C244.143 36.7617 244.286 36.6001 244.398 36.4104C244.514 36.2207 244.594 36.0043 244.638 35.7613L246.586 35.7702C246.536 36.1881 246.41 36.5912 246.208 36.9795C246.009 37.3649 245.741 37.7102 245.403 38.0155C245.068 38.3179 244.668 38.558 244.203 38.7358C243.74 38.9107 243.217 38.9982 242.633 38.9982C241.821 38.9982 241.095 38.8144 240.455 38.4468C239.817 38.0793 239.313 37.5472 238.943 36.8506C238.575 36.154 238.391 35.3107 238.391 34.3207C238.391 33.3277 238.578 32.4829 238.952 31.7863C239.325 31.0897 239.832 30.5591 240.472 30.1945C241.113 29.827 241.833 29.6432 242.633 29.6432C243.161 29.6432 243.65 29.7173 244.1 29.8655C244.554 30.0137 244.956 30.2301 245.305 30.5147C245.655 30.7963 245.94 31.1416 246.159 31.5507C246.381 31.9597 246.524 32.4281 246.586 32.9557Z" fill="white"/>
</g>
<defs>
<clipPath id="clip0_1599_5155">
<rect width="320" height="320" fill="white"/>
</clipPath>
</defs>
</svg>
